<svg id="Layer_1" data-name="Layer 1" xmlns="http://www.w3.org/2000/svg" xmlns:xlink="http://www.w3.org/1999/xlink" viewBox="0 0 1200 1200"><defs><clipPath id="clip-path"><rect width="1200" height="1200" style="fill:none"/></clipPath><clipPath id="clip-path-4"><polygon points="281.9 -202 204.9 80.2 -85.5 3.6 131.9 213.7 -85.5 427 204.9 343 281.9 632.1 358.8 343 638 421.1 432.4 213.7 638 3.6 358.8 80.2 281.9 -202 281.9 -202" style="fill:none;clip-path:url(#clip-path);clip-rule:evenodd"/></clipPath><clipPath id="clip-path-5"><rect y="1.2" width="1199.2" height="1198.67" style="fill:none"/></clipPath><clipPath id="clip-path-6"><path d="M314.9,1002l91.7-55.5c17.6,31.4,33.7,57.9,72.3,57.9,37,0,60.3-14.5,60.3-70.7V551H651.8V935.3c0,116.5-68.4,169.6-168.1,169.6-90,0-142.3-46.6-168.8-102.9" style="fill:none;clip-path:url(#clip-path);clip-rule:evenodd"/></clipPath><clipPath id="clip-path-7"><path d="M712.9,989.9l91.6-53c24.1,39.4,55.5,68.3,110.9,68.3,46.7,0,76.4-23.3,76.4-55.5,0-38.5-30.5-52.2-82-74.7l-28.1-12.1c-81.2-34.5-135.1-78-135.1-169.6,0-84.4,64.3-148.7,164.8-148.7,71.6,0,123,24.9,160,90l-87.6,56.3c-19.3-34.6-40.2-48.2-72.4-48.2s-53.8,20.9-53.8,48.2c0,33.8,20.9,47.4,69.1,68.3l28.1,12.1c95.7,41,149.6,82.8,149.6,176.8,0,101.3-79.6,156.8-186.5,156.8-104.6,0-172.1-49.8-205-115" style="fill:none;clip-path:url(#clip-path);clip-rule:evenodd"/></clipPath></defs><title>logo</title><g style="clip-path:url(#clip-path-5)"><rect x="-5" y="-3.8" width="1209.2" height="1208.67" style="fill:#abdff2"/></g><g style="clip-path:url(#clip-path-6)"><rect x="309.9" y="546" width="346.8" height="563.9" style="fill:#fff"/></g><g style="clip-path:url(#clip-path-7)"><rect x="707.9" y="539.6" width="401.5" height="570.33" style="fill:#fff"/></g><g style="clip-path:url(#clip-path)"><rect x="-90.5" y="-207" width="733.5" height="844.06" style="fill:#fd1c00"/></g></svg>